<?xml version="1.0" encoding="utf-8"?>
<!-- Generator: Adobe Illustrator 21.0.2, SVG Export Plug-In . SVG Version: 6.00 Build 0)  -->
<svg version="1.1" id="Layer_1" xmlns="http://www.w3.org/2000/svg" xmlns:xlink="http://www.w3.org/1999/xlink" x="0px" y="0px"
	 viewBox="0 0 720 720" style="enable-background:new 0 0 720 720;" xml:space="preserve">
<style type="text/css">
	.st0{fill:#665E3B;}
	.st1{fill:#B2B2B2;}
	.st2{fill:url(#SVGID_1_);}
	.st3{fill:url(#SVGID_2_);}
	.st4{fill:url(#SVGID_3_);}
	.st5{fill:url(#SVGID_4_);}
	.st6{fill:url(#SVGID_5_);}
	.st7{fill:url(#SVGID_6_);}
	.st8{fill:url(#SVGID_7_);}
	.st9{fill:url(#SVGID_8_);}
</style>
<g>
	<g>
		<path class="st0" d="M383.5,585.6l129.3-50.8l4.5,16.4c0,0-35.9,3.7-32.1,26.9c3.7,23.2,51.6,28.4,51.6,28.4l14.2,41.9
			L383.5,585.6z"/>
		<path class="st0" d="M336.5,585.6l-129.3-50.8l-4.5,16.4c0,0,35.9,3.7,32.1,26.9c-3.7,23.2-51.6,28.4-51.6,28.4l-14.2,41.9
			L336.5,585.6z"/>
		<g>
			<polygon class="st1" points="360,581.7 139.6,499.2 144.8,485.2 360,565.7 575.2,485.2 580.4,499.2 			"/>
		</g>
		<g>
			<g>
				<path class="st0" d="M106.2,416.3c0.1-0.4,0.1-1,0.2-1.9s0.1-1.8,0.1-2.8s0-2,0-3.1c0-1-0.1-1.9-0.1-2.7c1,0.5,2,0.9,3,1.2
					c1,0.3,2.2,0.6,3.5,0.8c1.3,0.2,2.9,0.4,4.7,0.5c1.8,0.1,4.1,0.2,6.7,0.2l30.3,0.4l0,0.5l-35.6,27.9l14.3-0.8v-0.1
					c2.6-0.1,4.8-0.2,6.8-0.4c1.9-0.2,3.6-0.3,5-0.4c1.4-0.1,2.7-0.3,3.7-0.4c1-0.1,2-0.2,2.9-0.2c-0.1,0.4-0.1,1.1-0.1,2
					c0,0.9-0.1,1.9-0.1,2.9c0,1,0,2.1,0,3.2s0,2,0.1,2.9c-0.9-0.5-2-0.9-3-1.3c-1.1-0.4-2.3-0.6-3.8-0.9c-1.4-0.2-3.1-0.4-4.9-0.5
					c-1.9-0.1-4.1-0.2-6.5-0.3l-22.4-0.3c-1,0.3-2,0.9-2.9,1.5c-0.9,0.7-1.6,1.5-2,2.6l0.2-12.8l25.2-19.7l-14.2,1.1l0-0.1
					c-2.9,0.2-5.1,0.4-6.7,0.6C108.8,416.1,107.4,416.2,106.2,416.3z"/>
				<path class="st0" d="M157,385c-0.7,3.1-1.8,5.7-3.5,7.7c-1.6,2-3.6,3.6-6,4.7c-2.3,1.1-4.9,1.7-7.8,1.9
					c-2.8,0.2-5.8-0.1-8.8-0.7c-3.4-0.7-6.4-1.7-9.1-3c-2.7-1.3-4.9-2.9-6.7-4.8c-1.8-1.9-3-4.1-3.7-6.7c-0.7-2.6-0.7-5.4,0-8.7
					c0.7-3.1,1.9-5.7,3.6-7.7c1.7-2,3.8-3.6,6.2-4.6c2.4-1.1,5.1-1.6,8-1.8c2.9-0.1,6,0.1,9.1,0.8c3.2,0.7,6.1,1.7,8.7,3
					c2.6,1.3,4.7,2.9,6.4,4.8c1.7,1.9,2.9,4.1,3.5,6.6C157.7,379,157.7,381.8,157,385z M152.4,382.4c0.4-2-0.3-3.8-2.2-5.4
					c-1.9-1.6-5-2.8-9.2-3.8c-2.7-0.6-5.4-1-8.2-1.2c-2.8-0.2-5.4-0.2-7.8,0.2c-2.4,0.3-4.4,1-6,1.9c-1.6,0.9-2.6,2.3-3,4
					c-0.5,2.1,0.3,4,2.2,5.6c1.9,1.6,5,2.8,9.1,3.7c2.6,0.6,5.3,1,8.1,1.2c2.8,0.2,5.4,0.2,7.8-0.2c2.4-0.3,4.4-1,6.1-1.9
					C151,385.5,152,384.1,152.4,382.4z"/>
				<path class="st0" d="M169.4,346.4c-1.3,2.9-2.9,5.2-4.9,6.9c-2,1.7-4.3,2.8-6.8,3.4c-2.5,0.6-5.2,0.7-8,0.3
					c-2.8-0.4-5.7-1.2-8.5-2.4c-3.2-1.4-5.9-3-8.3-4.8c-2.4-1.8-4.3-3.8-5.7-6c-1.4-2.2-2.1-4.7-2.3-7.3c-0.2-2.6,0.4-5.5,1.7-8.5
					c1.3-2.9,2.9-5.2,5-6.8c2.1-1.7,4.4-2.8,7-3.3c2.6-0.6,5.3-0.6,8.2-0.2c2.9,0.4,5.8,1.3,8.8,2.6c3,1.3,5.7,2.9,8,4.6
					c2.3,1.8,4.1,3.8,5.4,6c1.3,2.2,2,4.6,2.1,7.2S170.7,343.4,169.4,346.4z M165.4,342.9c0.8-1.9,0.5-3.8-1.1-5.8
					c-1.6-1.9-4.3-3.8-8.3-5.5c-2.5-1.1-5.1-2-7.8-2.8c-2.7-0.8-5.3-1.2-7.6-1.4c-2.4-0.1-4.5,0.1-6.3,0.7c-1.8,0.6-3,1.7-3.7,3.3
					c-0.9,2-0.5,4,1.1,5.9c1.6,1.9,4.3,3.8,8.2,5.5c2.5,1.1,5,2,7.7,2.7c2.7,0.8,5.3,1.2,7.7,1.4c2.4,0.2,4.5-0.1,6.3-0.7
					C163.4,345.7,164.7,344.6,165.4,342.9z"/>
				<path class="st0" d="M170.8,296c4.2,0.3,7.8,0.5,10.8,0.7c3,0.2,5.6,0.3,7.7,0.3c2.2,0,4-0.1,5.4-0.2c1.5-0.2,2.8-0.5,3.9-0.9
					l-5.2,7.7c-0.9,1.3-1.9,2.4-3.1,3.3c-1.2,0.9-2.8,1.2-4.9,1l-17.4-3.8l-2.9-0.4l4.3,2.9c2.2,1.5,4.2,2.8,5.8,3.8
					c1.6,1,3.1,1.8,4.4,2.4c1.3,0.6,2.4,1.1,3.4,1.3c1,0.3,2,0.5,3,0.6c-0.5,0.6-1.1,1.5-1.9,2.6c-0.8,1.1-1.6,2.3-2.4,3.5
					c-0.8,1.2-1.6,2.4-2.4,3.6c-0.8,1.2-1.4,2.1-1.8,2.9c-0.5-1-1.1-2-1.9-2.9c-0.7-0.9-1.6-1.8-2.7-2.8c-1.1-1-2.3-2-3.8-3.1
					c-1.5-1.1-3.2-2.4-5.3-3.7l-11.6-7.9c-2.7-1.8-5.1-3-7-3.9c-1.9-0.8-3.7-1.3-5.5-1.3l1.5-2.2l1.2-1.7l6.9-10.2
					c1.2-1.8,2.5-3.3,3.8-4.5c1.3-1.2,2.6-2.1,4-2.6c1.4-0.5,2.9-0.6,4.5-0.3c1.6,0.3,3.3,1,5,2.2c1.2,0.8,2.1,1.7,2.9,2.8
					c0.7,1.1,1.3,2.2,1.6,3.5c0.3,1.2,0.4,2.5,0.4,3.8C171.5,293.6,171.2,294.8,170.8,296z M163.4,302.5c1.4-2.5,2-4.6,1.6-6.6
					c-0.4-1.9-1.6-3.5-3.6-4.9c-2.1-1.4-4.1-2-5.8-1.6c-1.7,0.4-3.2,1.5-4.4,3.3l-0.7,1L163.4,302.5z"/>
				<path class="st0" d="M201.3,267.5c1.9,1.9,3.6,3.5,5.1,4.8c1.4,1.3,2.7,2.3,3.9,3.2c1.1,0.8,2.2,1.5,3.1,1.9
					c0.9,0.5,1.9,0.8,2.8,1.1c-0.6,0.6-1.4,1.3-2.3,2.2c-0.9,0.9-1.9,1.9-2.9,2.9c-1,1-2,2-2.9,3c-0.9,1-1.7,1.8-2.2,2.5
					c-0.3-1.1-0.8-2.1-1.3-3.1c-0.6-1-1.3-2.1-2.2-3.2c-0.9-1.1-1.9-2.4-3.2-3.7c-1.3-1.4-2.8-2.9-4.5-4.6l-6.8-6.6
					c-2-1.9-3.7-3.5-5.1-4.8c-1.5-1.3-2.7-2.3-3.9-3.1c-1.1-0.8-2.2-1.4-3.1-1.9c-0.9-0.4-1.8-0.7-2.8-0.9c0.7-0.6,1.5-1.4,2.5-2.3
					c1-0.9,2-1.9,3-2.9c1-1,1.9-2,2.8-3c0.9-1,1.6-1.7,2.1-2.3c0.4,1.1,0.9,2.1,1.4,3.1c0.5,1,1.2,2,2,3c0.8,1.1,1.9,2.3,3.1,3.6
					c1.3,1.3,2.8,2.9,4.6,4.7L201.3,267.5z"/>
				<path class="st0" d="M230,267.2c-1.6,1.3-3.4,2.5-5.2,3.5c-1.9,1-3.8,1.7-5.8,2.2l-10.5-9.1c1.6,0.5,3.2,1,4.8,1.3
					c1.6,0.3,3.2,0.5,4.7,0.5c1.6,0,3-0.1,4.4-0.5c1.4-0.3,2.6-0.9,3.6-1.8c1.7-1.3,2.6-2.9,2.7-4.7s-0.4-3.5-1.8-5.2
					c-1-1.2-2.2-2-3.6-2.2c-1.4-0.2-3-0.3-4.7-0.1c-1.7,0.2-3.5,0.5-5.3,0.9c-1.8,0.4-3.7,0.6-5.5,0.6c-1.8,0-3.6-0.3-5.3-0.8
					s-3.2-1.7-4.6-3.5c-2.6-3.2-3.4-6.5-2.3-9.9c1.1-3.4,3.5-6.6,7.4-9.7c1.1-0.9,2.4-1.8,4-2.8c1.5-0.9,3-1.7,4.6-2.4l7.7,7.1
					c-1.9-0.7-3.9-1.1-6-1c-2.1,0-4,0.7-5.7,2.1c-1.4,1.2-2.5,2.5-3,3.9c-0.6,1.5-0.3,2.9,0.8,4.3c0.8,1.1,2,1.7,3.3,1.8
					c1.4,0.2,2.9,0.1,4.6-0.1c1.7-0.2,3.5-0.5,5.3-0.8c1.9-0.3,3.8-0.5,5.6-0.4c1.9,0,3.7,0.4,5.5,1c1.8,0.6,3.4,1.9,4.8,3.7
					c1.4,1.8,2.3,3.6,2.7,5.5c0.4,1.9,0.3,3.8-0.2,5.7c-0.5,1.9-1.4,3.7-2.6,5.5C233.5,264,231.9,265.7,230,267.2z"/>
				<path class="st0" d="M255.5,242.2c1.6-1.2,3-2.3,4.2-3.5c1.3-1.1,2.4-2.3,3.3-3.4c1-1.1,1.8-2.3,2.5-3.6
					c0.7-1.3,1.2-2.6,1.6-4.1l2.5,10.4c0.4,1.7-0.2,3.1-1.9,4L248.2,253l-3,1.7c0.1-1.2,0-2.3-0.1-3.4c-0.1-1.1-0.4-2.2-0.9-3.5
					c-0.4-1.3-1-2.8-1.8-4.5c-0.8-1.7-1.8-3.8-3.1-6.2l-4.4-7.9c-1.2-2.1-2.3-4-3.3-5.6c-1-1.6-1.9-2.9-2.8-4.1
					c-0.9-1.1-1.7-2.1-2.6-2.9c-0.8-0.8-1.7-1.5-2.7-2.1c0.8-0.4,1.8-0.9,3-1.6c1.2-0.7,2.5-1.4,3.8-2.1c1.3-0.7,2.5-1.4,3.7-2.1
					c1.2-0.7,2.1-1.2,2.8-1.7c0,1,0.1,2,0.3,3c0.2,1,0.5,2.2,1,3.5c0.5,1.3,1.2,2.9,2.1,4.6c0.9,1.7,2,3.8,3.3,6.1l10.5,18.8
					L255.5,242.2z"/>
				<path class="st0" d="M281.3,187.8c3.5,5.2,6.5,9.6,9,13.3c2.5,3.7,4.6,6.9,6.4,9.5c1.8,2.6,3.2,4.7,4.4,6.4
					c1.2,1.7,2.3,3.1,3.2,4.1c1,1.1,1.9,2,2.8,2.7c0.9,0.7,1.9,1.4,3,2.1c-0.8,0.2-1.9,0.6-3.3,1.1c-1.4,0.5-2.8,1-4.3,1.5
					c-1.5,0.5-2.9,1-4.3,1.5c-1.4,0.5-2.4,0.9-3.2,1.2c0-0.6-0.1-1.3-0.3-1.9c-0.2-0.7-0.4-1.4-0.8-2.3s-0.9-1.9-1.5-3
					c-0.6-1.2-1.4-2.5-2.3-4.1l-9.5,3.3c0.3,1.9,0.6,3.5,0.9,4.7c0.3,1.2,0.6,2.3,0.9,3.1c0.3,0.8,0.7,1.6,1,2.1
					c0.3,0.6,0.7,1.1,1.1,1.7c-0.8,0.2-1.8,0.6-2.9,0.9c-1.1,0.4-2.3,0.8-3.5,1.2c-1.2,0.4-2.3,0.8-3.4,1.3
					c-1.1,0.4-2.1,0.8-2.9,1.1c0.3-0.9,0.6-1.8,0.8-2.6c0.2-0.8,0.4-1.8,0.5-3s0.2-2.7,0.2-4.5c0-1.8,0-4.2-0.1-7.1
					c-0.1-2.9-0.2-6.4-0.4-10.6c-0.2-4.2-0.4-9.2-0.7-15.2c-0.1-0.9-0.5-1.7-1-2.5c-0.5-0.7-1.4-1.3-2.5-1.7L281.3,187.8z
					 M286.9,214.7c-1.2-1.9-2.6-4.1-4.1-6.5c-1.6-2.4-3.3-5.2-5.3-8.2c0.4,3.7,0.8,6.9,1.2,9.8c0.4,2.8,0.7,5.3,1,7.5L286.9,214.7z"
					/>
				<path class="st0" d="M354.1,179.5c1.1,5.2,2.1,9.6,2.9,13.4c0.8,3.8,1.5,7,2,9.7c0.6,2.7,1.1,5,1.5,6.8c0.4,1.8,0.8,3.3,1.2,4.6
					c0.4,1.2,0.8,2.2,1.2,3c0.4,0.8,0.9,1.6,1.4,2.3c-0.8,0-1.9,0.1-3.1,0.2c-1.3,0.1-2.6,0.3-4,0.4c-1.4,0.2-2.7,0.3-4.1,0.5
					c-1.3,0.2-2.5,0.3-3.4,0.5c0.3-0.9,0.6-1.9,0.8-2.8c0.2-0.9,0.3-2,0.3-3.1c0-1.2-0.1-2.6-0.3-4.2c-0.2-1.6-0.5-3.6-0.8-6
					c-0.4-2.4-0.9-5.2-1.5-8.5c-0.6-3.3-1.4-7.2-2.2-11.6l-8.7,36.7l-0.5,0.1l-17.6-33.9c0.5,6.9,0.9,12.5,1.2,16.7
					c0.3,4.2,0.6,7.6,1,10.2c0.3,2.5,0.7,4.5,1.1,5.8c0.4,1.3,0.9,2.5,1.6,3.6c-0.9,0-1.9,0.1-3.1,0.2c-1.2,0.1-2.5,0.2-3.8,0.4
					c-1.3,0.1-2.6,0.3-3.8,0.5c-1.2,0.2-2.3,0.3-3.1,0.4c0.4-0.9,0.7-1.8,1-2.7c0.3-0.9,0.5-2,0.7-3.3c0.2-1.3,0.4-2.9,0.5-4.8
					c0.1-1.9,0.3-4.2,0.4-7c0.1-2.8,0.3-6.2,0.4-10.2c0.1-4,0.3-8.7,0.5-14.2c-0.3-0.7-0.8-1.4-1.4-2c-0.6-0.6-1.5-1.1-2.6-1.6
					l15.2-1.7l11.2,21.1l5.3-22.9l15.1-1.7c-1,0.9-1.7,1.7-2.1,2.5S353.9,178.4,354.1,179.5z"/>
				<path class="st0" d="M380.4,203.5c-0.2,2.7-0.3,5-0.3,6.9c0,1.9,0,3.6,0.1,5c0.1,1.4,0.3,2.6,0.6,3.6c0.3,1,0.6,2,1,2.9
					c-0.8-0.1-1.9-0.2-3.1-0.3c-1.3-0.1-2.6-0.2-4.1-0.3c-1.4-0.1-2.8-0.2-4.2-0.3c-1.4-0.1-2.5-0.1-3.3-0.1c0.6-1,1.1-2,1.5-3.1
					c0.4-1.1,0.8-2.3,1.1-3.7c0.3-1.4,0.6-3,0.8-4.9c0.2-1.8,0.4-4,0.6-6.4l0.6-9.4c0.2-2.8,0.3-5.1,0.3-7c0-1.9,0-3.6-0.1-5
					c-0.1-1.4-0.3-2.6-0.6-3.5c-0.3-1-0.7-1.9-1.1-2.7c0.9,0.1,2,0.2,3.4,0.4c1.4,0.1,2.7,0.3,4.2,0.4c1.4,0.1,2.8,0.2,4.1,0.2
					c1.3,0,2.3,0.1,3.1,0.1c-0.6,1-1,2-1.4,3c-0.4,1-0.7,2.2-1,3.5c-0.3,1.3-0.5,2.9-0.7,4.7c-0.2,1.8-0.4,4-0.6,6.6L380.4,203.5z"
					/>
				<path class="st0" d="M405.8,226.5c-3.4-0.7-6.2-1.9-8.5-3.5c-2.3-1.6-4-3.6-5.3-6c-1.3-2.3-2.1-4.9-2.3-7.8
					c-0.3-2.9-0.1-5.9,0.5-9c0.6-3,1.7-5.8,3.1-8.5c1.4-2.6,3.3-4.9,5.5-6.7c2.2-1.8,4.7-3.1,7.6-3.9c2.9-0.8,6-0.8,9.5-0.1
					c1.3,0.3,2.7,0.7,4.2,1.2c1.5,0.5,3.1,1.2,4.8,1.9l-0.8,9.8c-0.7-1.9-1.7-3.5-3.2-4.8c-1.5-1.3-3-2.1-4.7-2.4
					c-2-0.4-3.7-0.2-5.3,0.5c-1.6,0.8-3,1.9-4.3,3.3c-1.2,1.5-2.3,3.2-3.2,5.3c-0.9,2-1.5,4.2-2,6.4c-0.4,2-0.6,4.1-0.6,6.1
					c0,2.1,0.3,3.9,0.8,5.6c0.5,1.7,1.4,3.2,2.5,4.4c1.1,1.2,2.6,2,4.5,2.4c2,0.4,4.3,0.3,6.9-0.4c2.5-0.7,4.9-2,6.9-4.1l-4,10.1
					c-2.2,0.3-4.4,0.5-6.6,0.5C409.6,227,407.6,226.8,405.8,226.5z"/>
				<path class="st0" d="M471.1,200.9c-1.1,6.2-2,11.5-2.8,15.8c-0.8,4.4-1.4,8.1-2,11.2c-0.5,3.1-1,5.6-1.3,7.7
					c-0.3,2-0.5,3.8-0.6,5.2c-0.1,1.5,0,2.8,0.1,3.9c0.1,1.1,0.3,2.3,0.7,3.6c-0.8-0.4-1.8-0.9-3.1-1.5c-1.3-0.6-2.7-1.3-4.1-1.9
					c-1.4-0.7-2.8-1.3-4.1-1.9c-1.3-0.6-2.4-1-3.2-1.3c0.4-0.5,0.8-1,1.1-1.6c0.3-0.6,0.7-1.3,1-2.2c0.3-0.9,0.7-2,1.1-3.2
					c0.4-1.2,0.8-2.8,1.2-4.6l-9.1-4.2c-1.1,1.6-1.9,2.9-2.6,4c-0.7,1.1-1.2,2.1-1.5,2.9c-0.4,0.8-0.6,1.6-0.8,2.2
					c-0.1,0.7-0.3,1.3-0.4,2c-0.8-0.4-1.7-0.9-2.8-1.4c-1.1-0.5-2.2-1-3.3-1.6c-1.1-0.5-2.2-1-3.3-1.5c-1.1-0.5-2-0.9-2.9-1.2
					c0.9-0.5,1.6-0.9,2.4-1.3c0.7-0.4,1.5-1.1,2.4-1.8c0.9-0.8,2-1.8,3.3-3.1c1.3-1.3,2.9-3,4.8-5.2c1.9-2.1,4.3-4.8,7.1-7.9
					c2.8-3.1,6.1-6.9,10.1-11.4c0.5-0.7,0.9-1.6,1-2.5c0.1-0.9-0.1-1.9-0.6-2.9L471.1,200.9z M456.4,224.1c0.5-2.2,1-4.7,1.6-7.6
					c0.6-2.8,1.2-6,1.9-9.6c-2.2,3-4.2,5.6-5.9,7.9c-1.7,2.3-3.2,4.3-4.5,6.1L456.4,224.1z"/>
				<path class="st0" d="M481,260.3c-2.8-2-5-4.1-6.4-6.5c-1.4-2.4-2.3-4.9-2.6-7.6c-0.3-2.7,0-5.4,0.9-8.1c0.9-2.8,2.2-5.4,4-8
					c1.7-2.5,3.8-4.7,6.2-6.6c2.4-1.9,4.9-3.2,7.6-4s5.6-1,8.5-0.6c2.9,0.4,5.9,1.6,8.8,3.6c1.1,0.7,2.2,1.7,3.4,2.7
					c1.2,1.1,2.4,2.3,3.6,3.6l-4.6,8.7c0.1-2-0.2-3.9-1.1-5.7c-0.9-1.7-2-3.1-3.3-4c-1.6-1.1-3.3-1.7-5.1-1.6
					c-1.8,0.1-3.5,0.5-5.3,1.4s-3.4,2.1-5,3.6c-1.6,1.5-3.1,3.2-4.3,5.1c-1.2,1.7-2.2,3.5-3,5.4c-0.8,1.9-1.3,3.7-1.5,5.5
					c-0.2,1.8,0,3.5,0.6,5c0.6,1.6,1.6,2.9,3.2,4c1.7,1.2,3.9,2,6.5,2.3c2.6,0.4,5.3,0,8-1.1l-7.6,7.8c-2.1-0.6-4.2-1.2-6.3-2.1
					C484.3,262.2,482.5,261.3,481,260.3z"/>
				<path class="st0" d="M543.5,253.8c-3.2,5.4-5.9,10-8.1,13.9c-2.3,3.8-4.2,7.1-5.8,9.8c-1.6,2.7-2.9,5-3.8,6.8
					c-1,1.8-1.8,3.4-2.3,4.7c-0.6,1.3-1,2.6-1.3,3.7c-0.3,1.1-0.5,2.3-0.6,3.6c-0.6-0.6-1.4-1.5-2.4-2.5c-1-1-2.1-2.1-3.2-3.2
					c-1.1-1.1-2.2-2.2-3.2-3.2c-1-1-1.9-1.8-2.5-2.4c0.5-0.3,1.1-0.6,1.6-1.1c0.5-0.4,1.1-1,1.7-1.7c0.6-0.7,1.3-1.6,2.1-2.6
					s1.7-2.3,2.7-3.9l-7.1-7.1c-1.6,1.1-2.8,2.1-3.8,2.9c-1,0.8-1.8,1.5-2.4,2.2c-0.6,0.7-1.1,1.3-1.5,1.8c-0.4,0.6-0.7,1.1-1.1,1.8
					c-0.6-0.6-1.3-1.4-2.1-2.2c-0.8-0.9-1.7-1.7-2.6-2.6c-0.9-0.9-1.8-1.7-2.6-2.6c-0.9-0.8-1.6-1.5-2.3-2.1c1-0.1,1.9-0.3,2.7-0.4
					c0.8-0.2,1.8-0.5,2.9-0.9c1.1-0.4,2.5-1,4.1-1.8c1.6-0.8,3.8-1.8,6.3-3.2c2.6-1.3,5.7-3,9.4-5c3.7-2,8.2-4.4,13.4-7.2
					c0.8-0.5,1.4-1.2,1.8-2c0.4-0.8,0.6-1.8,0.4-3L543.5,253.8z M521.6,270.5c1.2-1.9,2.6-4.1,4.1-6.6c1.5-2.5,3.2-5.2,5.1-8.3
					c-3.1,2-5.9,3.8-8.3,5.3c-2.4,1.6-4.5,2.9-6.3,4.2L521.6,270.5z"/>
				<path class="st0" d="M567.7,283.3c2.4,3.4,3.8,6.5,4.4,9.3s0.5,5.4-0.4,7.8c-0.8,2.4-2.3,4.7-4.4,6.8c-2.1,2.1-4.7,4.3-7.8,6.4
					c-2.5,1.7-5.1,3.1-7.7,3.9c-2.6,0.9-5.1,1.3-7.4,1.2c-2.4-0.1-4.6-0.7-6.8-1.9c-2.1-1.2-4-2.9-5.5-5.2l-8.1-11.9l-1.9-2.8
					c1.2,0,2.3-0.2,3.3-0.4c1-0.2,2.2-0.6,3.4-1.2c1.2-0.5,2.7-1.3,4.3-2.3c1.6-0.9,3.6-2.2,5.9-3.6l11.6-7.9
					c2.6-1.9,4.7-3.6,6.2-5.1c1.5-1.5,2.5-3,3.2-4.6l1.5,2.2l1.2,1.7L567.7,283.3z M534.1,307.2c0.7,1,1.7,1.7,3,2.2
					c1.3,0.5,2.8,0.6,4.6,0.4s3.7-0.7,5.7-1.5c2.1-0.8,4.3-2,6.5-3.6c2.2-1.5,4.2-3.1,6-4.8c1.7-1.6,3.1-3.3,4.1-4.9
					c1-1.6,1.5-3.2,1.7-4.8c0.1-1.6-0.2-3-1.2-4.3c-0.2-0.3-0.3-0.5-0.5-0.7c-0.1-0.2-0.3-0.4-0.5-0.5l-30.4,20.9
					c0.2,0.3,0.3,0.6,0.5,0.9C533.8,306.7,534,307,534.1,307.2z"/>
				<path class="st0" d="M554.3,339.2c1.3,2.1,2.5,4,3.6,5.6c1.1,1.6,2.3,3,3.4,4.2c1.1,1.2,2.3,2.2,3.5,3c1.2,0.8,2.5,1.4,4,2
					l-10.6,1.6c-1.8,0.3-3-0.4-3.8-2.2l-10.1-22.2l-1.4-3.1c1.2,0.2,2.3,0.2,3.3,0.1c1.1-0.1,2.3-0.3,3.6-0.6
					c1.3-0.3,2.9-0.8,4.6-1.5c1.8-0.7,3.9-1.5,6.4-2.6l12.8-5.8c2.9-1.4,5.2-2.8,7-4c1.7-1.2,3-2.5,4-4l1.1,2.5l7,15.3
					c0.6,1.4,1.3,2.7,1.9,3.8c0.6,1.1,1.2,1.9,1.5,2.3l-8.8,6.6c-0.2-2.2-0.4-4.1-0.5-5.6c-0.1-1.6-0.3-3-0.4-4.2
					c-0.1-1.3-0.3-2.4-0.5-3.5c-0.2-1.1-0.4-2.3-0.7-3.5l-11.4,5.2l1.4,3.1c0.7,1.6,1.5,3,2.2,4.2c0.7,1.2,1.5,2.1,2.3,2.8l-8.3,3.8
					c0.1-1,0-2.3-0.3-3.7c-0.3-1.4-0.8-2.9-1.5-4.5l-1.4-3.1l-14.6,6.7L554.3,339.2z"/>
				<path class="st0" d="M607.7,397.3c-5,1.6-9.3,3.1-13,4.2c-3.7,1.2-6.8,2.2-9.4,3c-2.6,0.9-4.8,1.6-6.6,2.2s-3.2,1.2-4.4,1.7
					c-1.2,0.5-2.2,1-2.9,1.5c-0.8,0.5-1.5,1-2.1,1.6c-0.1-0.8-0.3-1.8-0.6-3.1c-0.3-1.3-0.5-2.6-0.8-3.9c-0.3-1.3-0.6-2.7-0.9-4
					c-0.3-1.3-0.6-2.4-0.8-3.4c1,0.2,1.9,0.4,2.9,0.5c0.9,0.1,2,0.1,3.2,0c1.2-0.1,2.6-0.4,4.2-0.7c1.6-0.4,3.6-0.8,5.9-1.5
					c2.3-0.6,5.1-1.4,8.3-2.4c3.2-1,7-2.1,11.3-3.4l-37.4-4.8l-0.1-0.5l31.9-21.1c-6.8,1.2-12.3,2.2-16.5,2.9c-4.2,0.8-7.5,1.4-10,2
					c-2.5,0.6-4.4,1.2-5.7,1.7c-1.3,0.5-2.4,1.2-3.4,2c-0.1-0.8-0.3-1.9-0.6-3.1c-0.2-1.2-0.5-2.5-0.8-3.8c-0.3-1.3-0.6-2.5-0.8-3.7
					c-0.3-1.2-0.5-2.2-0.8-3c0.9,0.3,1.9,0.5,2.8,0.7c0.9,0.2,2.1,0.3,3.4,0.4c1.3,0.1,2.9,0.1,4.8,0c1.9-0.1,4.2-0.2,7-0.3
					c2.8-0.1,6.2-0.4,10.2-0.6c4-0.3,8.7-0.6,14.2-0.9c0.7-0.4,1.3-0.9,1.8-1.6c0.5-0.7,0.9-1.6,1.3-2.8l3.3,14.9l-19.8,13.3
					l23.3,2.9l3.2,14.8c-1-0.9-1.9-1.5-2.7-1.8C609.6,397.1,608.7,397,607.7,397.3z"/>
				<path class="st0" d="M586.4,433.9c-2.7,0-5,0.1-7,0.2c-1.9,0.1-3.6,0.2-5,0.5c-1.4,0.2-2.6,0.5-3.6,0.8c-1,0.3-1.9,0.7-2.8,1.2
					c0-0.8,0.1-1.9,0.1-3.3c0-1.4,0-2.8,0-4.2c0-1.5,0-2.9,0-4.3c0-1.4-0.1-2.5-0.1-3.4c1,0.5,2,1,3.2,1.3c1.1,0.3,2.4,0.6,3.8,0.8
					c1.4,0.2,3.1,0.3,4.9,0.4c1.9,0.1,4,0.1,6.4,0.1l3.1,0c4.2-2.3,7.6-4.1,10.2-5.5c2.6-1.4,4.8-2.6,6.5-3.6c1.7-1,3.1-1.9,4.2-2.7
					c1.1-0.8,2.3-1.8,3.5-2.9c0,0.9-0.1,1.9-0.1,3.2c0,1.2-0.1,2.5-0.1,3.9s0,2.7,0.1,4s0.1,2.5,0.1,3.5c-0.8-0.1-1.6-0.2-2.3-0.1
					c-0.8,0-1.8,0.3-3.2,0.8c-1.3,0.5-3,1.2-5.1,2.2c-2.1,1-4.8,2.3-8.1,4c3.3,1.2,6,2.1,8,2.7c2.1,0.7,3.7,1.1,5.1,1.4
					c1.3,0.3,2.4,0.4,3.2,0.4c0.8,0,1.6-0.1,2.4-0.2c0,0.9-0.1,1.9-0.1,3.1c0,1.2-0.1,2.4-0.1,3.7c0,1.2,0,2.5,0.1,3.7
					s0.1,2.2,0.1,3.1c-0.9-0.8-1.8-1.6-2.7-2.2c-0.9-0.7-2.1-1.5-3.6-2.5c-1.6-1-3.7-2.2-6.3-3.7c-2.6-1.5-6.2-3.6-10.6-6.1
					L586.4,433.9z"/>
			</g>
		</g>
		<g>
			<g>
				<path class="st0" d="M174.9,692.8c-3.3,0-5.8-1-7.6-2.9c-1.8-1.9-2.7-4.8-2.7-8.7c0-3.7,0.9-6.6,2.7-8.6
					c1.8-2.1,4.3-3.1,7.6-3.1c1.8,0,5,0.6,9.7,1.9l0,10c0,4.5,1.7,6.8,5.1,6.8h0.9v4.6c-3.5,0-6-1-7.6-3c-1.5,2-4,3-7.6,3H174.9z
					 M171.7,667.2c-0.8,0-1.5-0.3-2.1-0.8c-0.5-0.5-0.8-1.2-0.8-2c0-0.8,0.3-1.5,0.8-2.1c0.5-0.5,1.2-0.8,2.1-0.8
					c0.8,0,1.5,0.3,2.1,0.8c0.5,0.5,0.8,1.2,0.8,2.1c0,0.8-0.3,1.5-0.8,2C173.1,666.9,172.4,667.2,171.7,667.2L171.7,667.2z
					 M179.5,683.3v-8.5c-1.7-0.5-3.3-0.7-4.7-0.7c-3.4,0-5.2,2.5-5.2,7.5c0,4.7,1.7,7,5.1,7h0.5
					C178.1,688.6,179.5,686.8,179.5,683.3z M178.6,667.1c-0.8,0-1.5-0.3-2.1-0.8c-0.5-0.5-0.8-1.2-0.8-2c0-0.8,0.3-1.5,0.8-2.1
					c0.5-0.5,1.2-0.8,2.1-0.8c0.8,0,1.5,0.3,2.1,0.8c0.5,0.5,0.8,1.2,0.8,2.1c0,0.8-0.3,1.5-0.8,2
					C180,666.9,179.3,667.2,178.6,667.1L178.6,667.1z"/>
				<path class="st0" d="M203.7,692.9c-2.7,0-4.7-1.1-6-3.4c-1.4,2.3-3.6,3.4-6.4,3.4h-1.3v-4.6h1c2.1,0,3.1-1.9,3.1-5.4V670h5v10.8
					c0,4.9,1.6,7.4,4.7,7.4h1.1v4.6H203.7z M193.5,701.2c-0.8,0-1.5-0.3-2.1-0.8c-0.5-0.5-0.8-1.2-0.8-2.1c0-0.8,0.3-1.5,0.8-2.1
					c0.5-0.5,1.2-0.8,2.1-0.8c0.8,0,1.5,0.3,2.1,0.8c0.5,0.5,0.8,1.2,0.8,2c0,0.8-0.3,1.5-0.8,2S194.3,701.2,193.5,701.2
					L193.5,701.2z M200.2,701.3c-0.8,0-1.5-0.3-2.1-0.8c-0.5-0.5-0.8-1.2-0.8-2.1c0-0.8,0.3-1.5,0.8-2.1s1.2-0.8,2.1-0.8
					c0.8,0,1.5,0.3,2.1,0.8c0.5,0.5,0.8,1.2,0.8,2c0,0.8-0.3,1.5-0.8,2C201.7,701,201,701.2,200.2,701.3L200.2,701.3z"/>
				<path class="st0" d="M204.6,692.9v-4.6h3.9c-1.1-1.9-1.6-4.2-1.6-7c0-3.6,0.9-6.4,2.7-8.3c1.8-2,4.3-3,7.5-3c3.3,0,5.9,1,7.6,3
					c1.8,2,2.7,4.8,2.7,8.5c0,4-1.1,6.9-3.2,8.8c-1.8,1.8-4.4,2.7-7.8,2.7H204.6z M222.4,681.6c0-4.8-1.7-7.2-5.2-7.2
					c-3.4,0-5.2,2.4-5.2,7.2c0,4.5,1.7,6.8,5.2,6.8C220.6,688.3,222.4,686.1,222.4,681.6z"/>
				<path class="st0" d="M254.8,692.9c-3.1-0.1-5.4-1.1-6.9-3.2c-1.4,2.1-3.6,3.2-6.7,3.2H232l0.1-4.6h8.4c2.8,0,4.2-1.7,4.2-5.3
					v-21.5h5v21.6c0,3.4,1.4,5.1,4.1,5.1h1.7v4.6H254.8z M234.9,686v-22.2h4.7V686H234.9z"/>
				<path class="st0" d="M263.6,689.9c-1.2,2-2.8,3-4.7,3h-3.8v-4.6h2c2,0,3-1.6,3-5v-11.4h5l0,11.4c0,3.3,1.4,5,4.2,5
					c2.2,0,3.4-1.7,3.4-5v-11.4h5v10.8c0,3.9,1.2,5.9,3.6,5.9c2.2,0,3.2-1.8,3.2-5.4v-11.2h5v12.5c0,2-0.5,3.8-1.5,5.2
					c-1.5,2.3-3.5,3.4-6.2,3.4c-2.4,0-4.3-1.1-5.7-3.2c-1.3,2.2-3.6,3.3-6.8,3.3C266.9,693.1,265,692,263.6,689.9z"/>
				<path class="st0" d="M294.1,692.9l0.1-4.6h8.4c2.8,0,4.2-1.7,4.2-5.3v-21.5h5V683c0,6.5-2.8,9.8-8.5,9.9H294.1z M297,686v-22.2
					h4.7V686H297z M297.3,700.7c0.8-0.3,1.3-0.5,1.6-0.5c-1-0.7-1.4-1.5-1.5-2.2l0-0.3v-0.2c0-1.1,0.5-1.9,1.6-2.5
					c0.4-0.1,0.7-0.2,1.1-0.3h0.2c0.6,0,1.3,0.1,2.1,0.4l-0.1,1.8c-0.4-0.1-0.7-0.1-1-0.1h-0.2c-0.9,0-1.4,0.5-1.4,1.2v0.1
					c0,0.2,0,0.4,0.1,0.5c0.3,0.6,1,0.9,2,0.9h0.3c0.3,0,0.7-0.1,1.2-0.1l-0.1,1.9c-2.2,0.3-4,0.8-5.6,1.4L297.3,700.7z"/>
				<path class="st0" d="M321.5,692.9h-5.2v-31.4h5.2V692.9z"/>
				<path class="st0" d="M345.6,692.8c-3.3,0-5.8-1-7.6-2.9c-1.8-1.9-2.7-4.8-2.7-8.7c0-3.7,0.9-6.6,2.7-8.6
					c1.8-2.1,4.3-3.1,7.6-3.1c1.8,0,5,0.6,9.7,1.9l0,10c0,4.5,1.7,6.8,5.1,6.8h0.9v4.6c-3.5,0-6-1-7.6-3c-1.5,2-4,3-7.6,3H345.6z
					 M342.4,667.2c-0.8,0-1.5-0.3-2.1-0.8c-0.5-0.5-0.8-1.2-0.8-2c0-0.8,0.3-1.5,0.8-2.1c0.5-0.5,1.2-0.8,2.1-0.8
					c0.8,0,1.5,0.3,2.1,0.8c0.5,0.5,0.8,1.2,0.8,2.1c0,0.8-0.3,1.5-0.8,2C343.9,666.9,343.2,667.2,342.4,667.2L342.4,667.2z
					 M350.3,683.3v-8.5c-1.7-0.5-3.3-0.7-4.7-0.7c-3.4,0-5.2,2.5-5.2,7.5c0,4.7,1.7,7,5.1,7h0.5
					C348.9,688.6,350.3,686.8,350.3,683.3z M349.3,667.1c-0.8,0-1.5-0.3-2.1-0.8c-0.5-0.5-0.8-1.2-0.8-2c0-0.8,0.3-1.5,0.8-2.1
					c0.5-0.5,1.2-0.8,2.1-0.8c0.8,0,1.5,0.3,2.1,0.8c0.5,0.5,0.8,1.2,0.8,2.1c0,0.8-0.3,1.5-0.8,2
					C350.8,666.9,350.1,667.2,349.3,667.1L349.3,667.1z"/>
				<path class="st0" d="M374.5,692.9c-2.7,0-4.7-1.1-6-3.4c-1.4,2.3-3.6,3.4-6.4,3.4h-1.3v-4.6h1c2.1,0,3.1-1.9,3.1-5.4V670h5v10.8
					c0,4.9,1.6,7.4,4.7,7.4h1.1v4.6H374.5z M364.3,701.2c-0.8,0-1.5-0.3-2.1-0.8c-0.5-0.5-0.8-1.2-0.8-2.1c0-0.8,0.3-1.5,0.8-2.1
					c0.5-0.5,1.2-0.8,2.1-0.8c0.8,0,1.5,0.3,2.1,0.8c0.5,0.5,0.8,1.2,0.8,2c0,0.8-0.3,1.5-0.8,2S365.1,701.2,364.3,701.2
					L364.3,701.2z M371,701.3c-0.8,0-1.5-0.3-2.1-0.8c-0.5-0.5-0.8-1.2-0.8-2.1c0-0.8,0.3-1.5,0.8-2.1s1.2-0.8,2.1-0.8
					c0.8,0,1.5,0.3,2.1,0.8c0.5,0.5,0.8,1.2,0.8,2c0,0.8-0.3,1.5-0.8,2C372.4,701,371.8,701.2,371,701.3L371,701.3z"/>
				<path class="st0" d="M395,689.5c-2,2.2-4.8,3.4-8.4,3.4h-11.3v-4.6h3.2c-1.1-1.9-1.6-4.2-1.6-7c0-3.6,0.9-6.4,2.7-8.3
					c1.8-2,4.3-3,7.5-3c3.3,0,5.9,1,7.6,3c1.8,2,2.7,4.8,2.7,8.5c0,1.3-0.1,2.5-0.3,3.5c0.5,2.2,2.2,3.3,5,3.4h0.5v4.6
					C399.2,692.9,396.6,691.7,395,689.5z M392.4,681.5c0-4.8-1.7-7.2-5.2-7.2c-3.4,0-5.2,2.4-5.2,7.2c0,4.5,1.7,6.8,5.2,6.8
					C390.7,688.2,392.4,686,392.4,681.5z"/>
				<path class="st0" d="M405.1,701.2c-0.8,0-1.5-0.3-2.1-0.8c-0.5-0.5-0.8-1.2-0.8-2.1c0-0.8,0.3-1.5,0.8-2.1
					c0.5-0.5,1.2-0.8,2.1-0.8c0.8,0,1.5,0.3,2.1,0.8c0.5,0.5,0.8,1.2,0.8,2c0,0.8-0.3,1.5-0.8,2
					C406.6,700.9,405.9,701.2,405.1,701.2L405.1,701.2z M408.7,683.4v-13.2h5v13c0,6.6-2.9,9.9-8.6,9.9h-2.8v-4.6h1.9
					C407.2,688.4,408.7,686.7,408.7,683.4z M411.3,701.3c-0.8,0-1.5-0.3-2.1-0.8c-0.5-0.5-0.8-1.2-0.8-2.1c0-0.8,0.3-1.5,0.8-2.1
					c0.5-0.5,1.2-0.8,2.1-0.8c0.8,0,1.5,0.3,2.1,0.8c0.5,0.5,0.8,1.2,0.8,2c0,0.8-0.3,1.5-0.8,2C412.8,701,412.1,701.2,411.3,701.3
					L411.3,701.3z"/>
				<path class="st0" d="M431.3,688.3v-6.5c0-2.2-0.5-4-1.5-5.4c-1-1.3-2.3-1.9-4.1-1.9c-1.1,0-2.8,0.3-5,1l-0.3-4.4
					c1.6-0.8,3.4-1.2,5.5-1.2c3.2,0,5.9,1.1,7.7,3.2s2.8,5,2.8,8.7v6.5h4.3v4.6h-21.6v-4.6H431.3z"/>
				<path class="st0" d="M440.4,692.7l0-4.6h14.3c1.4,0,2.4-0.6,2.8-1.6c0.3-0.8,0.5-1.8,0.5-3.1c0-3.2-1.8-4.8-5.2-4.8l-11.2,0
					l-0.1-6.5l14.6-10.8l2.2,3.6l-12,9l6.4,0c3.3,0,5.9,1,7.6,3c1.8,2,2.7,4.1,2.7,6.3c0,2.1-0.4,3.8-1.1,5.4
					c-0.8,1.5-1.8,2.6-3.1,3.3s-3.2,1-5.7,1L440.4,692.7z"/>
				<path class="st0" d="M467.6,692.9l0.1-4.6h8.4c2.8,0,4.2-1.7,4.2-5.3v-21.5h5V683c0,6.5-2.8,9.8-8.5,9.9H467.6z M469.6,659.5
					c0.8-0.3,1.3-0.5,1.6-0.5c-1-0.7-1.4-1.5-1.5-2.2l0-0.5c0-1.1,0.5-1.9,1.6-2.5c0.4-0.1,0.8-0.2,1.2-0.3c0.7,0,1.4,0.1,2.2,0.4
					l-0.1,1.8c-0.4-0.1-0.7-0.1-1-0.1c-1.1,0-1.6,0.5-1.6,1.2c0,1,0.7,1.5,2.2,1.5c0.3,0,0.8,0,1.5-0.1l-0.1,1.9
					c-2.2,0.3-4,0.8-5.6,1.4L469.6,659.5z M470.5,686v-22.2h4.7V686H470.5z"/>
				<path class="st0" d="M495,692.9h-5.2v-31.4h5.2V692.9z"/>
				<path class="st0" d="M508.2,696.6c3.2,0,4.7-1.6,4.7-4.8V670h5v21.7c0,6.3-3.1,9.5-9.2,9.5h-2.2v-4.6H508.2z"/>
				<path class="st0" d="M530.6,701.2v-4.6h2.2c3.1,0,4.7-1.3,4.7-3.9v-0.3c-1.3,0.6-2.9,0.9-4.6,0.9c-3.3,0-5.8-1.1-7.6-3.2
					c-1.8-2.1-2.7-5-2.7-8.8c0-3.7,0.9-6.6,2.7-8.6c1.8-2.1,4.3-3.1,7.5-3.1c1.8,0,5,0.6,9.7,1.9v16.8h3.8v4.6h-3.8
					c-0.4,5.5-3.4,8.3-9.2,8.3H530.6z M537.5,687.8v-12.9c-1.7-0.5-3.3-0.7-4.7-0.7c-3.4,0-5.2,2.5-5.2,7.5c0,4.7,1.7,7,5.1,7h0.1
					C534.4,688.7,535.9,688.4,537.5,687.8z"/>
				<path class="st0" d="M545.6,692.9v-4.6h0.8c2.8-0.1,4.2-1.8,4.2-5.1V670h5v13c0,6.5-2.9,9.8-8.6,9.9H545.6z M552.8,667.2
					c-0.8,0-1.5-0.3-2.1-0.8c-0.5-0.5-0.8-1.2-0.8-2c0-0.8,0.3-1.5,0.8-2.1c0.5-0.5,1.2-0.8,2.1-0.8c0.8,0,1.5,0.3,2.1,0.8
					c0.5,0.5,0.8,1.2,0.8,2.1c0,0.8-0.3,1.5-0.8,2C554.3,666.9,553.6,667.2,552.8,667.2L552.8,667.2z"/>
			</g>
		</g>
		<radialGradient id="SVGID_1_" cx="360" cy="337.3518" r="113.8669" gradientUnits="userSpaceOnUse">
			<stop  offset="0" style="stop-color:#E6E7E8"/>
			<stop  offset="1" style="stop-color:#B2B2B2"/>
		</radialGradient>
		<path class="st2" d="M221.9,463.1l5.5,5.1c7.2,0.7,15.2,1.2,24,1.3c47.5,0.6,84.5,3.5,108.7,29.7c24.2-26.3,61.2-29.1,108.7-29.7
			c8.7-0.1,16.7-0.6,24-1.3l5.5-5.1h0c8.4-8.5,27.7-33.3,14-73.2C491,328.2,362.4,288.2,360,251.7c-2.4,36.5-131,76.6-152.2,138.2
			C194.1,429.8,213.4,454.7,221.9,463.1L221.9,463.1z"/>
		<linearGradient id="SVGID_2_" gradientUnits="userSpaceOnUse" x1="162.3538" y1="510.5209" x2="557.6462" y2="510.5209">
			<stop  offset="1.082549e-07" style="stop-color:#DAB46B"/>
			<stop  offset="0.5577" style="stop-color:#FFE68F"/>
			<stop  offset="1" style="stop-color:#C9A652"/>
		</linearGradient>
		<path class="st3" d="M550.9,468.3c0,0-27.2,14.2-82,14.9c-54.8,0.7-89.8,4.5-108.9,39.6c-19.1-35.1-54.1-38.9-108.9-39.6
			c-54.8-0.7-82-14.9-82-14.9l-6.7,9L360,552.8l197.6-75.5L550.9,468.3z"/>
	</g>
	<linearGradient id="SVGID_3_" gradientUnits="userSpaceOnUse" x1="28.7359" y1="359.5517" x2="360.0062" y2="359.5517">
		<stop  offset="1.082549e-07" style="stop-color:#DAB46B"/>
		<stop  offset="0.5577" style="stop-color:#FFE68F"/>
		<stop  offset="1" style="stop-color:#C9A652"/>
	</linearGradient>
	<path class="st4" d="M360,10.6c0.1,4.9-1,9.9-2.7,14.6c-1.7,4.7-4,9.2-6.8,13.5c-5.6,8.4-12.9,15.7-20.9,21.9
		c-8,6.3-16.9,11.2-26,15.5c-2.3,1.1-4.6,2.1-6.9,3.1l-7,2.8l-6.6,2.7l-6.4,3c-16.9,8.3-32.1,19.7-43.1,34.2
		c-5.5,7.2-10.1,15.1-13.5,23.4c-1.7,4.1-3.1,8.4-4.2,12.7c-0.6,2.1-1,4.3-1.4,6.4c-0.2,1.1-0.3,2.1-0.5,3.2l-0.2,1.5
		c0,0.4-0.1,1.1-0.1,1.2l0.4,12.5l-13.3-3.2c-12.4-3-25-4.3-36.7-2.7c-11.7,1.6-22,6.4-29.1,14.3c-3.6,3.9-6.5,8.6-8.6,13.7
		c-2.1,5.1-3.6,11-4.1,16.3c-0.3,2.7-0.3,5.6-0.2,8.8c0.1,3.1,0.2,6.5,0.4,9.7c0.2,3.1,0.5,6.2,1,9.5l1.3,10.4l1.7,14.1l-14.5-0.1
		c-9.4,0-18.2-0.6-25.5,0.2c-7.4,0.7-12.4,2.7-16.9,6.8c-2.3,2-4.4,4.6-6.3,7.7c-1.9,3-3.4,6.1-4.6,9.3c-2.4,6.5-3.3,14-3.5,22.4
		l-1.4,107c-0.4,35.8-1,71.6-1.8,107.4c-0.4,17.9-0.8,35.8-1.3,53.7l-1.8,53.7l-0.3-2.2c0.3,0.9,0.8,2.3,1.2,3.4
		c0.5,1.2,1,2.4,1.5,3.6c1.1,2.4,2.3,4.7,3.7,6.9c2.7,4.5,5.9,8.6,9.7,12c3.8,3.5,8.1,6.2,12.9,7.9c2.4,0.9,4.9,1.5,7.5,1.8
		c2.6,0.4,5.2,0.5,7.8,0.4l2.3,0l1,1.5c2.7,3.9,6.2,7.9,9.8,11.4c3.7,3.5,7.6,6.8,11.9,9.5c4.3,2.8,8.9,5.2,13.7,6.9
		c4.9,1.8,10,2.8,15.2,3.2c-5.2,0.3-10.6,0-15.8-1.2c-5.2-1.2-10.3-3-15.1-5.4c-4.8-2.4-9.4-5.4-13.7-8.7c-4.3-3.4-8.2-6.9-12-11.3
		l3.3,1.5c-6.1,0.9-12.5,0.8-18.7-0.9c-6.2-1.6-12-4.5-17-8.4c-5.1-3.8-9.4-8.4-13.1-13.4c-1.8-2.5-3.5-5.1-5.1-7.8
		c-0.8-1.4-1.5-2.7-2.2-4.1c-0.7-1.5-1.3-2.7-2-4.5l-0.3-0.8l-0.1-1.4l-2-53.7l-1.7-53.7c-0.5-17.9-1-35.8-1.3-53.7
		c-0.4-17.9-0.7-35.8-0.9-53.8c-0.3-17.9-0.3-35.8-0.4-53.8l0-26.9l0.1-13.3c0-4.4,0-9,0.1-13.8c0.3-9.5,1.2-20.1,4.9-30.4
		c1.9-5.2,4.4-10.1,7.3-14.7c2.9-4.5,6.4-8.9,10.8-12.9c4.4-4,9.7-7.3,15.3-9.4c5.6-2.2,11.3-3.3,16.6-3.8c10.6-0.9,19.7,0,28.2,0.1
		l-12.8,14.1l-1.1-10c-0.4-3.5-0.7-7.2-0.9-10.9c-0.2-3.7-0.3-7.1-0.3-10.9c0-3.7,0.1-7.7,0.6-11.7c1-8.3,3.2-15.7,6.4-23.2
		c3.3-7.4,7.9-14.5,13.8-20.5c5.8-6,13-10.7,20.4-14.1c3.8-1.6,7.6-2.9,11.5-3.9c3.9-1,7.8-1.6,11.7-2c15.6-1.5,30.6,1,44.6,5.1
		l-12.8,9.2c0.1-1.1,0.2-1.7,0.3-2.5l0.3-2.1c0.2-1.4,0.5-2.7,0.8-4.1c0.6-2.7,1.3-5.3,2.2-7.9c1.6-5.1,3.6-10.1,5.9-15
		c4.6-9.6,10.6-18.6,17.6-26.5c7-7.9,15-14.8,23.7-20.6c8.6-5.8,17.8-10.6,27.4-14.3l7.2-2.6l7.3-2.3l6.9-2.1
		c2.3-0.8,4.5-1.5,6.8-2.3c9-3.3,17.7-7.2,25.8-12.2c8.2-4.9,15.7-11,21.9-18.3C353.5,29.1,358.5,20.4,360,10.6z"/>
	<linearGradient id="SVGID_4_" gradientUnits="userSpaceOnUse" x1="359.9938" y1="359.5517" x2="691.2641" y2="359.5517">
		<stop  offset="1.082549e-07" style="stop-color:#DAB46B"/>
		<stop  offset="0.5577" style="stop-color:#FFE68F"/>
		<stop  offset="1" style="stop-color:#C9A652"/>
	</linearGradient>
	<path class="st5" d="M360,10.6c1.5,9.8,6.5,18.5,12.6,25.8c6.2,7.3,13.7,13.4,21.9,18.3c8.1,5,16.9,8.9,25.8,12.2
		c2.2,0.8,4.5,1.6,6.8,2.3l6.9,2.1l7.3,2.3l7.2,2.6c9.5,3.7,18.7,8.5,27.4,14.3c8.6,5.8,16.7,12.7,23.7,20.6
		c7.1,7.9,13,16.8,17.6,26.5c2.3,4.8,4.3,9.8,5.9,15c0.8,2.6,1.5,5.2,2.2,7.9c0.3,1.3,0.6,2.7,0.8,4.1l0.3,2.1
		c0.1,0.8,0.2,1.4,0.3,2.5l-12.8-9.2c14-4.1,29-6.6,44.6-5.1c3.9,0.4,7.8,1.1,11.7,2c3.9,1,7.7,2.3,11.5,3.9
		c7.5,3.3,14.6,8,20.4,14.1c5.9,6,10.4,13.1,13.8,20.5c3.2,7.5,5.4,15,6.4,23.2c0.5,4.1,0.6,8,0.6,11.7c0,3.8-0.1,7.2-0.3,10.9
		c-0.2,3.7-0.5,7.5-0.9,10.9l-1.1,10l-12.8-14.1c8.5-0.1,17.6-1,28.2-0.1c5.3,0.5,11,1.6,16.6,3.8c5.6,2.2,10.9,5.5,15.3,9.4
		c4.4,3.9,7.9,8.4,10.8,12.9c2.9,4.5,5.5,9.5,7.3,14.7c3.7,10.4,4.7,21,4.9,30.4c0.1,4.8,0.1,9.4,0.1,13.8l0.1,13.3l0,26.9
		c0,17.9-0.1,35.9-0.4,53.8c-0.2,17.9-0.5,35.8-0.9,53.8c-0.3,17.9-0.9,35.8-1.3,53.7l-1.7,53.7l-2,53.7l-0.1,1.4l-0.3,0.8
		c-0.7,1.8-1.3,3.1-2,4.5c-0.7,1.4-1.4,2.8-2.2,4.1c-1.5,2.7-3.2,5.3-5.1,7.8c-3.7,5-8,9.6-13.1,13.4c-5,3.8-10.9,6.8-17,8.4
		c-6.2,1.7-12.6,1.8-18.7,0.9l3.3-1.5c-3.8,4.4-7.7,7.9-12,11.3c-4.3,3.3-8.8,6.3-13.7,8.7c-4.8,2.4-9.9,4.3-15.1,5.4
		c-5.2,1.2-10.6,1.6-15.8,1.2c5.2-0.4,10.4-1.5,15.2-3.2c4.9-1.7,9.5-4.1,13.7-6.9c4.3-2.8,8.3-6,11.9-9.5c3.6-3.5,7.1-7.5,9.8-11.4
		l1-1.5l2.3,0c2.6,0,5.3,0,7.8-0.4c2.6-0.3,5.1-1,7.5-1.8c4.8-1.7,9.2-4.4,12.9-7.9c3.8-3.4,7-7.6,9.7-12c1.4-2.2,2.6-4.6,3.7-6.9
		c0.5-1.2,1.1-2.4,1.5-3.6c0.5-1.1,1-2.5,1.2-3.4l-0.3,2.2l-1.8-53.7c-0.5-17.9-1-35.8-1.3-53.7c-0.7-35.8-1.3-71.6-1.8-107.4
		L665,320c-0.3-8.4-1.2-15.8-3.5-22.4c-1.2-3.3-2.7-6.4-4.6-9.3c-1.9-3-4-5.7-6.3-7.7c-4.5-4.1-9.6-6-16.9-6.8
		c-7.3-0.8-16.1-0.2-25.5-0.2l-14.5,0.1l1.7-14.1l1.3-10.4c0.4-3.3,0.7-6.4,1-9.5c0.2-3.2,0.4-6.6,0.4-9.7c0.1-3.1,0-6-0.2-8.8
		c-0.5-5.4-2-11.2-4.1-16.3c-2.1-5.1-5-9.8-8.6-13.7c-7.1-7.9-17.5-12.8-29.1-14.3c-11.7-1.6-24.3-0.4-36.7,2.7l-13.3,3.2l0.4-12.5
		c0-0.1,0-0.8-0.1-1.2l-0.2-1.5c-0.1-1-0.3-2.1-0.5-3.2c-0.4-2.1-0.8-4.3-1.4-6.4c-1.1-4.3-2.5-8.5-4.2-12.7
		c-3.5-8.3-8-16.2-13.5-23.4c-11-14.5-26.2-25.9-43.1-34.2l-6.4-3l-6.6-2.7l-7-2.8c-2.3-1-4.6-2-6.9-3.1c-9.1-4.3-18-9.3-26-15.5
		c-8.1-6.1-15.3-13.4-20.9-21.9c-2.8-4.2-5.1-8.8-6.8-13.5C361,20.5,359.9,15.6,360,10.6z"/>
</g>
</svg>
