<?xml version="1.0" encoding="UTF-8"?>
<svg version="1.1" viewBox="0 0 2048 860" width="1280" height="1280" xmlns="http://www.w3.org/2000/svg">
<path transform="translate(302,260)" d="m0 0 53 1 28 1 10 1 2 1v49l1 117 1 69 1 10 14 7 10 10 1 4-4 1-11 1h-33l-40-1-88-1h-39l1-4 5-1 34-1h128l1-7h-143l-20 1-1-1v-228l1-26 9-1zm-20 9-61 1-1 24-2 127v47l1 18 3 14 4 7 8 4 8 1h81l36-1 2-1 1-21v-23l15-2 6-2 1-1 1-12 2-87v-75h-2l-2-12-2-2-2 3v132l3 3v6l-2 2-5 22-7 12-4 4-3 1-16 1-111 1v-91l1-47 1-20 3-13 6-9 10-5 6-2 25-2 15-1v-1zm-23 28-4 3v6l1 1h11l1-5-3-1-1 1v-3l3-1zm10 2-1 7h11l-1-3-2-2 4 1 1 3h12l1-2-3-3-4 3-4-3-3-1zm118 216-2 1-1 9 1 1 16 1 9 2 5 1 2-1-8-4-6-5-4-4-4-1z" fill="#4C1C08"/>
<path transform="translate(618,227)" d="m0 0h15l21 3 18 6 16 8 15 10 11 10 10 14 8 16 6 20 3 17v19l-3 19-5 17-8 16-8 12-11 12-10 8-15 9-9 5 2 6 12 19 12 17 11 12 7 6 13 8 15 6 23 7 7 3 3 3-2 3h-10l-20-4-21-7-23-10-11-6-13-10-11-10-8-7-11-11-10-13-4-5-27-3-15-4-12-5-16-9-13-10-13-13-8-13-5-10-5-15-3-12-2-16v-14l3-19 5-17 8-16 9-13 9-10 10-9 17-10 13-5 20-4zm-8 13-16 4-11 6-9 7-8 8-8 13-6 15-4 15-1 8v35l4 20 7 21 9 16 12 13 11 8 12 6 14 4 17 1 15-2 13-4 10-5 13-10 7-7 6-9 6-13 3-14 2-19v-16l-2-22-4-17-7-17-7-12-12-13-11-8-17-9-13-3z" fill="#004B20"/>
<path transform="translate(867,227)" d="m0 0h11l12 3 8 6 6 7 4 11v12l-3 10-8 12-13 13-12 9-8 4-7 1 5 13 10 19 13 19 11 14 9 10 9 11 6 7 6 4 12 14 8 7 11 11 11 9 15 11 21 12 18 8 21 6 16 3 1 3-9 2-29 4-13-1-15-5-22-11-17-11-16-12-11-9-11-10-8-6-16 8-13 5-16 4-10 1h-20l-14-3-13-5-9-5-10-8-7-10-6-12-3-12v-18l4-13 7-11 14-14 20-15 12-7-1-8-5-16-2-10v-17l4-13 7-13 9-9 14-7zm0 10-8 3-8 7-5 12-1 8v13l4 18 4 8h4l12-8 9-8 7-11 3-9 1-11-2-9-3-6-5-5-7-2zm-35 95-10 9-10 11-8 14-3 14v14l3 12 6 11 10 10 11 7 11 5 5 1h26l13-3 12-5 3-2-2-5-12-14-12-16-11-15-12-19-9-15-6-11-3-3z" fill="#004B20"/>
<path transform="translate(1801,221)" d="m0 0h31l1 1-2 50v135l1 27v14h-27l-5-5-5 1-11 4-12 2-11 1h-14l-18-3-13-4-14-9-8-8-9-14-6-15-3-14-1-18 3-16 6-16 7-12 9-10 10-8 16-8 15-4 8-1h23l12 3 15 8 3 2v-55l-1-18-1-9zm-52 80-10 3-10 6-9 8-7 11-4 10-2 9-1 9v19l3 18 5 13 7 12 10 11 8 5 12 4 8 1h13l13-4 12-6 5-6 1-3 1-27v-51l-2-14-6-10-6-7-10-7-12-4z" fill="#004B20"/>
<path transform="translate(1502,293)" d="m0 0h34l1 2-2 21-1 17v69l3 14 4 8 7 6 8 3h14l13-4 14-8 9-7 5-6v-50l-1-39-2-26h34l-2 24-1 42v45l2 36v7l-1 1h-28l-4-2 1-7 2-13-11 6-13 8-17 8-12 3h-20l-11-4-10-9-7-14-3-14-2-91-2-19z" fill="#004B20"/>
<path transform="translate(1130,227)" d="m0 0h13l19 2 23 5 5 5 5 12 3 13-5-2-16-10-16-7-16-4h-28l-18 4-10 4-11 8-10 9-8 11-7 14-5 17-2 17v14l2 18 5 19 6 15 9 15 14 14 16 10 13 5 14 3 9 1h18l14-2 11-4 11-7 14-12h2l-1 9-7 14-6 7-8 4-21 5-10 1h-21l-24-3-20-6-21-11-14-10-10-9-7-8-9-15-7-18-4-17-1-7v-23l4-19 6-16 8-14 7-9 9-10 9-8 11-7 16-8 17-5 18-3z" fill="#004B20"/>
<path transform="translate(1378,291)" d="m0 0h15l17 2 15 5 11 6 12 11 7 8 9 16 5 16 1 5v23l-4 16-5 12-8 12-8 9-14 10-11 5-15 3-10 1h-17l-19-3-13-5-10-6-10-9-7-8-7-12-6-17-2-14v-11l2-14 4-12 9-17 11-12 11-8 16-8 12-3zm0 10-12 3-9 5-9 8-7 12-5 16-2 17v10l2 15 4 15 6 12 10 13 8 6 12 5 12 2h9l9-2 10-5 10-9 6-7 5-13 2-11v-30l-3-19-5-13-8-12-8-8-12-7-13-3z" fill="#004B20"/>
<path transform="translate(1237,221)" d="m0 0h31l-1 37v151l1 39h-32l1-19v-194l-1-13z" fill="#004B20"/>
<path transform="translate(402,538)" d="m0 0 19 1 5 3v5l-2 1h-221l-15-1v-5l7-2 56-1z" fill="#471F10"/>
<path transform="translate(933,323)" d="m0 0h22l2 1v14l-3 22-6 22-7 16-8 14-2 3-4-2-2-2 1-9 6-19 3-24v-10l-2-18z" fill="#004B20"/>
<path transform="translate(933,550)" d="m0 0 8 1 8 4 7 8 6 14 2 14v15l-3 14-4 8-8 9-6 3-12 1-8-2-6-4-6-10-4-13-1-7v-17l3-16 4-8 7-8 9-5zm-2 5-6 4-6 8-4 10-1 9v16l2 18 4 8 7 6 6 2h6l8-5 4-5 4-16 1-12v-11l-2-12-7-14-5-5-3-1z" fill="#830FFE"/>
<path transform="translate(858,553)" d="m0 0h12l9 4 5 6 3 8v9l-4 11-8 11-11 13-12 13-3 5h40l2 3-1 4-7 2-43-1-4-2 1-5 18-18 7-8 11-14 4-8 2-11-2-7-5-6-2-1h-14l-12 3h-7l3-5 9-4z" fill="#8411FE"/>
<path transform="translate(756,574)" d="m0 0h14l10 6 4 5 4 10 2 8v6l-6 2-17 1-22-1v9l3 7 4 4 8 3h13l13-5-2 6-5 4-6 2h-15l-10-4-6-7-4-8-1-4v-17l2-10 6-9 7-6zm4 4-8 4-6 9-2 11 1 2 3 1 22 1 9-1 2-1v-8l-4-11-5-5-5-2z" fill="#830FFD"/>
<path transform="translate(1090,550)" d="m0 0 3 3 1 3 1 11v48l13 1 2 3-1 1h-13v17l-2 3-4-1-1-1v-17l-35-1-11-1 2-6 12-19 12-18 10-14zm-2 11-5 4-10 15-14 22-8 11 1 2 7 1h27l3-1 1-54z" fill="#830EFE"/>
<path transform="translate(1e3 552)" d="m0 0 12 2 9 6 6 9 1 9-5 13-12 16-15 16-8 10h30l10-1 2 2-1 7-11 1-42-2v-4l7-8 11-12 9-9 10-13 6-13 1-9-6-8-8-4h-10l-13 5h-4l2-6 5-3z" fill="#8512FE"/>
<path transform="translate(530,553)" d="m0 0h11l14 3 4 3v4l-10-1-9-2h-10l-10 5-3 4-1 3v8l5 5 8 5 21 9 8 6 5 8v8l-4 8-7 7-16 4-5 1h-13l-8-3-2-3v-4l6 1 12 3 13-1 12-6 4-6v-9l-7-8-10-5-15-4-8-5-6-9-1-9 3-8 5-6 10-5z" fill="#830EFE"/>
<path transform="translate(608,574)" d="m0 0 4 1 3 6 5-1 7-5 4-1h9l9 3 6 5 4 8 1 3 1 24v22l-5 1-2-1-1-4v-36l-3-10-4-6-4-3-9-1-7 2-6 7-4 9-2 10-1 32-4 1-2-2v-39z" fill="#820DFD"/>
<path transform="translate(702,574)" d="m0 0h11l8 2 3 5v2l-9-3-4-1h-7l-6 2-7 6-4 8-2 9v10l3 10 4 6 10 5h10l10-4 1 2-3 6-9 3h-7l-11-3-10-9-4-8-2-9v-12l4-11 6-8 8-6z" fill="#820CFE"/>
<path transform="translate(581,575)" d="m0 0h5l1 1v63l-5 1-2-3v-61z" fill="#8009FE"/>
<path transform="translate(390,292)" d="m0 0h1v82h-1l-2-20h-1v-61z" fill="#7B05F9"/>
<path transform="translate(303,476)" d="m0 0 5 1 1 1v18l-5 1-3-3-1-13z" fill="#4C1D13"/>
<path transform="translate(581,554)" d="m0 0 5 1 2 2-1 5-7-1-1-4z" fill="#8715FE"/>
<path transform="translate(272,300)" d="m0 0 1 4h-2z" fill="#491F2D"/>
<path transform="translate(259,301)" d="m0 0" fill="#7E04FE"/>
</svg>
